<svg id="Layer_3" data-name="Layer 3" xmlns="http://www.w3.org/2000/svg" viewBox="0 0 32 32"><defs><style>.cls-1{fill:#f9f9fa;}.cls-2{fill:#1c2b30;}</style></defs><path class="cls-1" d="M4.3,8.89H28.36A3.14,3.14,0,0,1,31.5,12v16.8a1.92,1.92,0,0,1-1.92,1.92h-27A1.92,1.92,0,0,1,.64,28.83V12.54A3.65,3.65,0,0,1,4.3,8.89Z"/><rect class="cls-1" x="15.78" y="0.5" width="15.57" height="4.79" rx="2.18"/><ellipse class="cls-1" cx="2.81" cy="2.9" rx="2.31" ry="2.4"/><ellipse class="cls-1" cx="9.44" cy="2.9" rx="2.31" ry="2.4"/><polygon class="cls-2" points="12.47 22.36 7.64 27.91 3.6 27.91 8.43 22.36 3.6 16.82 7.64 16.82 12.47 22.36"/><rect class="cls-2" x="16.21" y="22.81" width="9.8" height="1.95"/><path class="cls-2" d="M16,28.5H26.23a0,0,0,0,1,0,0v2.41a.58.58,0,0,1-.58.58H16.58a.58.58,0,0,1-.58-.58V28.5a0,0,0,0,1,0,0Z"/></svg>